<svg id="Layer_1" data-name="Layer 1" xmlns="http://www.w3.org/2000/svg" viewBox="0 0 414.69 77.16"><defs><style>.cls-1{fill:#ffffff;}</style></defs><title>logo_moviescout</title><path class="cls-1" d="M216.68,165.77V133.3l-13.33,32.47h-7.51l-13.33-32.2v32.2h-8.62V119.46h11.89l13.91,33.44,13.59-33.44h12.28v46.31h-8.88Z" transform="translate(-87.71 -107.11)"/><path class="cls-1" d="M247.64,132.65a17.46,17.46,0,0,1,6.7,1.27,15.83,15.83,0,0,1,8.88,8.92,18.06,18.06,0,0,1,1.27,6.86,17.82,17.82,0,0,1-1.27,6.83,16.52,16.52,0,0,1-3.53,5.39,15.89,15.89,0,0,1-5.36,3.56,18.24,18.24,0,0,1-13.39,0,15.9,15.9,0,0,1-5.36-3.56,16.52,16.52,0,0,1-3.53-5.39,17.81,17.81,0,0,1-1.27-6.83,18.05,18.05,0,0,1,1.27-6.86,15.83,15.83,0,0,1,8.88-8.92A17.45,17.45,0,0,1,247.64,132.65Zm0,26.19a8.36,8.36,0,0,0,3.07-.59,7.32,7.32,0,0,0,2.61-1.73,8.7,8.7,0,0,0,1.8-2.84,11.91,11.91,0,0,0,0-8,8.73,8.73,0,0,0-1.8-2.84,7.33,7.33,0,0,0-2.61-1.73,8.31,8.31,0,0,0-6.14,0,7.31,7.31,0,0,0-2.61,1.73,8.7,8.7,0,0,0-1.8,2.84,11.92,11.92,0,0,0,0,8,8.67,8.67,0,0,0,1.8,2.84,7.3,7.3,0,0,0,2.61,1.73A8.35,8.35,0,0,0,247.64,158.84Z" transform="translate(-87.71 -107.11)"/><path class="cls-1" d="M286.12,165.77h-8.69L264.3,133.63h9.54l8,21.56,7.64-21.56h9.14Z" transform="translate(-87.71 -107.11)"/><path class="cls-1" d="M300.75,123.11a5.24,5.24,0,0,1,1.57-3.85,5.4,5.4,0,0,1,7.61,0,5.3,5.3,0,0,1,1.54,3.85,5.36,5.36,0,0,1-9.15,3.72A5.09,5.09,0,0,1,300.75,123.11Zm1,42.65V133.63h8.69v32.14h-8.69Z" transform="translate(-87.71 -107.11)"/><path class="cls-1" d="M346.47,156.56a13.37,13.37,0,0,1-1.86,4,13.68,13.68,0,0,1-3.1,3.23,15,15,0,0,1-4.28,2.19,17,17,0,0,1-5.39.82,17.68,17.68,0,0,1-6.34-1.14,15.32,15.32,0,0,1-5.29-3.36,16.09,16.09,0,0,1-3.63-5.42,18.62,18.62,0,0,1-1.34-7.25,18,18,0,0,1,1.31-7,16.27,16.27,0,0,1,3.49-5.32,15.69,15.69,0,0,1,5.06-3.4,15.19,15.19,0,0,1,5.94-1.21q7.51,0,11.69,4.44t4.18,12.22q0,0.92-.07,1.73t-0.06.95h-23a6.9,6.9,0,0,0,.75,2.91,8.08,8.08,0,0,0,1.76,2.32,8,8,0,0,0,2.51,1.54,8.44,8.44,0,0,0,3.07.56,7.55,7.55,0,0,0,4.8-1.37,7.81,7.81,0,0,0,2.52-3.53ZM338.37,146a7.87,7.87,0,0,0-.49-2.32,5.6,5.6,0,0,0-1.31-2,6.77,6.77,0,0,0-2.22-1.44,8.25,8.25,0,0,0-3.17-.56,7.25,7.25,0,0,0-3,.59,7.38,7.38,0,0,0-2.22,1.5,6.66,6.66,0,0,0-1.4,2A6.41,6.41,0,0,0,324,146h14.37Z" transform="translate(-87.71 -107.11)"/><path class="cls-1" d="M356.4,155.19a5.34,5.34,0,0,0,1.57,3.4,5.7,5.7,0,0,0,4.31,1.5,4.65,4.65,0,0,0,3.2-.95,2.94,2.94,0,0,0,1-2.25,2.69,2.69,0,0,0-.78-1.93,5.13,5.13,0,0,0-2.68-1.21l-4.25-1q-4.7-1-6.86-3.63a9,9,0,0,1-2.16-6,9.4,9.4,0,0,1,.91-4.08,10.21,10.21,0,0,1,2.52-3.33A12.58,12.58,0,0,1,357,133.5a13.18,13.18,0,0,1,4.8-.85,15.43,15.43,0,0,1,5.75.95,11.59,11.59,0,0,1,3.82,2.38,10,10,0,0,1,2.19,3,9.55,9.55,0,0,1,.85,2.91l-7.25,1.63a8,8,0,0,0-.42-1.47,4.12,4.12,0,0,0-.95-1.4,4.88,4.88,0,0,0-1.6-1,6.08,6.08,0,0,0-2.32-.39,4.68,4.68,0,0,0-2.91.91,2.77,2.77,0,0,0-1.21,2.29,2.4,2.4,0,0,0,.82,1.89,4.45,4.45,0,0,0,2.12,1l4.57,1a12.68,12.68,0,0,1,7.15,3.66,9.06,9.06,0,0,1,2.38,6.21,10.39,10.39,0,0,1-.75,3.85,9.55,9.55,0,0,1-2.32,3.4,11.72,11.72,0,0,1-3.92,2.42,15.1,15.1,0,0,1-5.49.91,15.86,15.86,0,0,1-6.14-1,13.13,13.13,0,0,1-4-2.55,10,10,0,0,1-2.32-3.23,10.44,10.44,0,0,1-.88-3.1Z" transform="translate(-87.71 -107.11)"/><path class="cls-1" d="M394,140.69a8.44,8.44,0,0,0-3.17.59,7.39,7.39,0,0,0-2.58,1.73,8.28,8.28,0,0,0-1.76,2.84,11.7,11.7,0,0,0,0,7.71,8.35,8.35,0,0,0,1.8,2.87,7.49,7.49,0,0,0,2.61,1.76,8.44,8.44,0,0,0,3.17.59,8.05,8.05,0,0,0,2.91-.49,7.41,7.41,0,0,0,2.19-1.27,6.63,6.63,0,0,0,1.47-1.76,8.79,8.79,0,0,0,.82-1.89l7.64,2.55a14.16,14.16,0,0,1-4.83,7.41,15.63,15.63,0,0,1-4.44,2.48,16.42,16.42,0,0,1-5.75.95,17.29,17.29,0,0,1-6.63-1.27,16.25,16.25,0,0,1-5.39-3.56,16.67,16.67,0,0,1-3.59-5.39,17.4,17.4,0,0,1-1.31-6.83,18.06,18.06,0,0,1,1.27-6.86,16.08,16.08,0,0,1,3.53-5.39,16.34,16.34,0,0,1,5.29-3.53,18,18,0,0,1,12.41-.33,16,16,0,0,1,4.48,2.45,12.85,12.85,0,0,1,3.07,3.46,15,15,0,0,1,1.7,4l-7.77,2.61a8.83,8.83,0,0,0-2.25-3.72A6.52,6.52,0,0,0,394,140.69Z" transform="translate(-87.71 -107.11)"/><path class="cls-1" d="M427.54,132.65a17.46,17.46,0,0,1,6.7,1.27,15.82,15.82,0,0,1,8.88,8.92,18,18,0,0,1,1.27,6.86,17.8,17.8,0,0,1-1.27,6.83,16.51,16.51,0,0,1-3.53,5.39,15.91,15.91,0,0,1-5.36,3.56,18.24,18.24,0,0,1-13.39,0,15.9,15.9,0,0,1-5.36-3.56,16.52,16.52,0,0,1-3.53-5.39,17.82,17.82,0,0,1-1.27-6.83,18.06,18.06,0,0,1,1.27-6.86,15.83,15.83,0,0,1,8.88-8.92A17.46,17.46,0,0,1,427.54,132.65Zm0,26.19a8.36,8.36,0,0,0,3.07-.59,7.32,7.32,0,0,0,2.61-1.73,8.69,8.69,0,0,0,1.8-2.84,11.91,11.91,0,0,0,0-8,8.72,8.72,0,0,0-1.8-2.84,7.32,7.32,0,0,0-2.61-1.73,8.31,8.31,0,0,0-6.14,0,7.31,7.31,0,0,0-2.61,1.73,8.68,8.68,0,0,0-1.8,2.84,11.91,11.91,0,0,0,0,8,8.66,8.66,0,0,0,1.8,2.84,7.3,7.3,0,0,0,2.61,1.73A8.36,8.36,0,0,0,427.54,158.84Z" transform="translate(-87.71 -107.11)"/><path class="cls-1" d="M470.06,165.77a8.87,8.87,0,0,1-.2-1.5q-0.07-1-.07-2a7.49,7.49,0,0,1-3.82,3.3,13.47,13.47,0,0,1-5.06,1,12.57,12.57,0,0,1-5.19-1,11.59,11.59,0,0,1-3.82-2.71,11.43,11.43,0,0,1-2.38-4,14.71,14.71,0,0,1-.82-4.93V133.63h8.69v18.55a7.42,7.42,0,0,0,1.41,4.61,5.24,5.24,0,0,0,4.47,1.86,5.72,5.72,0,0,0,4.51-1.76,6.62,6.62,0,0,0,1.57-4.57V133.63H478V160q0,1.9.1,3.43t0.23,2.38h-8.3Z" transform="translate(-87.71 -107.11)"/><path class="cls-1" d="M495.93,133.63h6.47v7.71h-6.47v13.46a3.69,3.69,0,0,0,.95,2.91,4.25,4.25,0,0,0,2.84.82q0.78,0,1.57-.06a4.23,4.23,0,0,0,1.11-.2v7.19a9.84,9.84,0,0,1-1.8.52,15.19,15.19,0,0,1-3.1.26,10.35,10.35,0,0,1-7.45-2.61,9.62,9.62,0,0,1-2.74-7.32v-15h-5.81v-7.71h1.63a4.58,4.58,0,0,0,3.76-1.47,5.52,5.52,0,0,0,1.21-3.63V124h7.84v9.6Z" transform="translate(-87.71 -107.11)"/><path class="cls-1" d="M153,140.09L97.4,108a6.47,6.47,0,0,0-9.7,5.6v64.21a6.47,6.47,0,0,0,9.7,5.6l55.6-32.1A6.47,6.47,0,0,0,153,140.09Zm-54.68-4.8h29.29a1.93,1.93,0,1,1,0,3.86H98.33A1.93,1.93,0,0,1,98.33,135.29Zm20.58,20.81H98.33a1.93,1.93,0,0,1,0-3.86h20.58A1.93,1.93,0,0,1,118.91,156.09Zm16.5-8.47H98.33a1.93,1.93,0,0,1,0-3.86h37.09A1.93,1.93,0,0,1,135.42,147.62Z" transform="translate(-87.71 -107.11)"/></svg>
